<svg viewBox="0 0 48 36" xmlns="http://www.w3.org/2000/svg">
  <path shape-rendering="geometricPrecision" d="M22.1641 27.3278C21.9051 26.9608 21.7756 26.7773 21.7492 26.6013C21.7246 26.4372 21.7476 26.2966 21.8231 26.1488C21.904 25.9904 22.1008 25.8462 22.4944 25.5577C26.0058 22.9843 28.2857 18.8298 28.2857 14.1429C28.2857 6.33197 21.9537 0 14.1429 0C6.33197 0 0 6.33197 0 14.1429V33.6C0 34.4401 0 34.8601 0.16349 35.181C0.3073 35.4632 0.536771 35.6927 0.819014 35.8365C1.13988 36 1.55992 36 2.4 36H26.5488C27.1106 36 27.3914 36 27.5431 35.8834C27.6751 35.7818 27.7553 35.627 27.7622 35.4605C27.77 35.2694 27.608 35.0399 27.2841 34.581L22.1641 27.3278Z" />
  <path shape-rendering="geometricPrecision" d="M30 14.25C30 18.718 28.1396 22.7514 25.1511 25.6179C24.663 26.0861 24.4189 26.3202 24.3286 26.5463C24.2428 26.7611 24.225 26.947 24.2683 27.1742C24.3139 27.4134 24.4885 27.6608 24.8378 28.1556L29.8211 35.2152C30.0227 35.5009 30.1235 35.6437 30.2631 35.7492C30.3803 35.8379 30.5359 35.9114 30.6787 35.9458C30.8489 35.9867 31.0084 35.975 31.3275 35.9518C40.6488 35.2723 48 27.4946 48 18C48 8.05887 39.9411 0 30 0C28.3864 0 26.8223 0.212332 25.3343 0.610581C24.6887 0.783367 24.3659 0.86976 24.2117 1.06451C24.0763 1.23557 24.0225 1.45215 24.0623 1.66668C24.1075 1.91092 24.3915 2.17439 24.9595 2.70132C28.0598 5.57772 30 9.68728 30 14.25Z" />
</svg>