<svg viewBox="0 0 48 36" fill="none" xmlns="http://www.w3.org/2000/svg">
<path shape-rendering="geometricPrecision" fill-rule="evenodd" clip-rule="evenodd" d="M16.0284 25.1382L19.4872 23.0588C22.5202 21.2354 24.5357 17.9227 24.5357 14.1429C24.5357 8.40304 19.8827 3.75 14.1429 3.75C8.40304 3.75 3.75 8.40304 3.75 14.1429V32.25H21.0485L16.0284 25.1382ZM28.2857 36H2.4C1.55992 36 1.13988 36 0.819014 35.8365C0.536771 35.6927 0.3073 35.4632 0.16349 35.181C0 34.8601 0 34.4401 0 33.6V14.1429C0 6.33197 6.33197 0 14.1429 0C21.9537 0 28.2857 6.33197 28.2857 14.1429C28.2857 18.547 26.2727 22.4809 23.1165 25.0747C22.5821 25.5139 22.015 25.9146 21.4194 26.2727L28.2857 36Z"/>
<path shape-rendering="geometricPrecision" fill-rule="evenodd" clip-rule="evenodd" d="M28.996 3.78482C29.3277 3.76173 29.6625 3.75 30 3.75C37.87 3.75 44.25 10.1299 44.25 18C44.25 25.8701 37.8701 32.25 30 32.25C29.8659 32.25 29.7322 32.2481 29.599 32.2445L32.1595 35.8718C41.0825 34.8049 48 27.2103 48 18C48 8.05887 39.9411 0 30 0C28.5467 0 27.1337 0.172228 25.7801 0.497386C26.9868 1.45145 28.0683 2.5568 28.996 3.78482Z"/>
</svg>
