<svg viewBox="0 0 184 36" fill="none" xmlns="http://www.w3.org/2000/svg">
<path fill-rule="evenodd" clip-rule="evenodd" d="M16.0284 25.1382L19.4872 23.0588C22.5202 21.2354 24.5357 17.9227 24.5357 14.1429C24.5357 8.40304 19.8827 3.75 14.1429 3.75C8.40304 3.75 3.75 8.40304 3.75 14.1429V32.25H21.0485L16.0284 25.1382ZM28.2857 36H2.4C1.55992 36 1.13988 36 0.819014 35.8365C0.536771 35.6927 0.3073 35.4632 0.16349 35.181C0 34.8601 0 34.4401 0 33.6V14.1429C0 6.33197 6.33197 0 14.1429 0C21.9537 0 28.2857 6.33197 28.2857 14.1429C28.2857 18.547 26.2727 22.4809 23.1165 25.0747C22.5821 25.5139 22.015 25.9146 21.4194 26.2727L28.2857 36Z"/>
<path fill-rule="evenodd" clip-rule="evenodd" d="M28.996 3.78482C29.3277 3.76173 29.6625 3.75 30 3.75C37.87 3.75 44.25 10.1299 44.25 18C44.25 25.8701 37.8701 32.25 30 32.25C29.8659 32.25 29.7322 32.2481 29.599 32.2445L32.1595 35.8718C41.0825 34.8049 48 27.2103 48 18C48 8.05887 39.9411 0 30 0C28.5467 0 27.1337 0.172228 25.7801 0.497386C26.9868 1.45145 28.0683 2.5568 28.996 3.78482Z"/>
<path d="M70.796 28H74.688L70.488 21.14C72.784 20.16 74.492 17.976 74.492 14.952C74.492 10.696 71.132 8.12 67.52 8.12H60.044V28H63.488V21.756H66.988L70.796 28ZM63.488 11.368H67.52C69.452 11.368 71.048 12.712 71.048 14.952C71.048 17.164 69.452 18.508 67.52 18.508H63.488V11.368Z"/>
<path d="M90.0278 21.084C90.0278 17.024 87.3118 13.552 82.9438 13.552C78.6598 13.552 75.8598 16.884 75.8598 20.832C75.8598 24.976 78.7999 28.28 83.1679 28.28C87.0879 28.28 89.2999 25.564 89.7199 23.632L86.6959 23.296C86.1359 24.276 84.9878 25.228 83.1959 25.228C80.7038 25.228 79.3878 23.716 79.3039 21.98H90.0278V21.084ZM82.9438 16.604C85.0998 16.604 86.4719 18.032 86.5839 19.6H79.3039C79.3878 17.976 80.8438 16.604 82.9438 16.604Z"/>
<path d="M91.938 20.916C91.938 24.976 94.906 28.28 98.966 28.28C101.402 28.28 103.306 26.992 104.034 25.368L104.23 28H107.506V13.832H104.23L104.034 16.464C103.306 14.84 101.402 13.552 98.966 13.552C94.906 13.552 91.938 16.856 91.938 20.916ZM95.382 20.916C95.382 18.676 97.118 16.8 99.554 16.8C101.962 16.8 103.67 18.676 103.67 20.916C103.67 23.156 101.962 25.032 99.554 25.032C97.118 25.032 95.382 23.156 95.382 20.916Z"/>
<path d="M113.894 7H110.45V28H113.894V7Z"/>
<path d="M125.399 16.968V20.216H132.567C131.839 23.128 129.543 25.032 126.239 25.032C122.459 25.032 119.855 21.952 119.855 18.06C119.855 14.168 122.655 11.088 126.631 11.088C129.095 11.088 130.775 12.404 131.839 13.916L134.443 11.9C132.651 9.464 130.047 7.84 126.631 7.84C120.583 7.84 116.411 12.488 116.411 18.06C116.411 23.632 120.583 28.28 126.239 28.28C132.175 28.28 136.291 24.08 136.291 16.968H125.399Z"/>
<path d="M141.484 7H138.04V28H141.484V7Z"/>
<path d="M151.48 28.28C155.904 28.28 159.04 24.976 159.04 20.916C159.04 16.856 155.904 13.552 151.48 13.552C147.028 13.552 143.864 16.856 143.864 20.916C143.864 24.976 147.028 28.28 151.48 28.28ZM151.48 25.032C149.044 25.032 147.308 23.156 147.308 20.916C147.308 18.676 149.044 16.8 151.48 16.8C153.888 16.8 155.596 18.676 155.596 20.916C155.596 23.156 153.888 25.032 151.48 25.032Z"/>
<path d="M179.635 13.832L176.359 23.716L173.111 13.832H169.443L166.195 23.716L162.947 13.832H159.279L164.403 28H167.987L171.291 18.9L174.567 28H178.179L183.303 13.832H179.635Z"/>
</svg>
