<svg viewBox="0 0 24 24" fill="none" xmlns="http://www.w3.org/2000/svg">
  <path fill-rule="evenodd" clip-rule="evenodd" d="M7.75566 2.27556C8.15576 2.16835 8.56702 2.40579 8.67422 2.80589L9.45068 5.70367C9.55789 6.10377 9.32045 6.51502 8.92035 6.62222C8.52025 6.72943 8.109 6.49199 8.00179 6.09189L7.22533 3.19412C7.11813 2.79402 7.35556 2.38277 7.75566 2.27556ZM15.2416 4.28144C15.5345 4.57433 15.5345 5.04921 15.2416 5.3421L13.1203 7.46342C12.8274 7.75631 12.3525 7.75631 12.0596 7.46342C11.7667 7.17053 11.7667 6.69565 12.0596 6.40276L14.1809 4.28144C14.4738 3.98855 14.9487 3.98855 15.2416 4.28144ZM2.27555 7.75563C2.38276 7.35553 2.79401 7.11809 3.19411 7.2253L6.09189 8.00175C6.49199 8.10896 6.72943 8.52021 6.62222 8.92031C6.51501 9.32041 6.10376 9.55785 5.70366 9.45064L2.80588 8.67419C2.40579 8.56698 2.16835 8.15573 2.27555 7.75563ZM9.23122 9.23115C9.43726 9.0251 9.744 8.95705 10.0179 9.05663L21.0179 13.0566C21.3102 13.1629 21.5065 13.4386 21.5115 13.7496C21.5164 14.0606 21.3289 14.3423 21.0401 14.4578L17.0961 16.0354L21.2919 20.2311C21.5848 20.524 21.5848 20.9989 21.2919 21.2918C20.999 21.5847 20.5241 21.5847 20.2312 21.2918L16.0355 17.0961L14.4579 21.04C14.3424 21.3288 14.0606 21.5163 13.7496 21.5114C13.4387 21.5064 13.163 21.3101 13.0567 21.0178L9.0567 10.0178C8.95712 9.74394 9.02517 9.43719 9.23122 9.23115ZM11.0156 11.0156L13.7949 18.6586L15.0652 15.4829C15.1414 15.2924 15.2924 15.1414 15.483 15.0651L18.6587 13.7948L11.0156 11.0156ZM7.46351 12.0595C7.7564 12.3524 7.7564 12.8273 7.46351 13.1202L5.34219 15.2415C5.04929 15.5344 4.57442 15.5344 4.28153 15.2415C3.98863 14.9486 3.98863 14.4737 4.28153 14.1808L6.40285 12.0595C6.69574 11.7666 7.17061 11.7666 7.46351 12.0595Z"/>
</svg>
