<svg viewBox="0 0 24 24" fill="none" xmlns="http://www.w3.org/2000/svg">
<path fill-rule="evenodd" clip-rule="evenodd" d="M12.7053 4.69855L6.28774 11.2877C4.23748 13.338 4.23744 16.6621 6.28769 18.7123C8.33794 20.7626 11.6621 20.7626 13.7123 18.7123L19.9703 12.469C20.2635 12.1765 20.7384 12.177 21.031 12.4703C21.3235 12.7635 21.3229 13.2384 21.0297 13.5309L14.773 19.773C14.7729 19.773 14.773 19.7729 14.773 19.773C12.1369 22.4088 7.86299 22.4089 5.22703 19.773C2.59219 17.1381 2.59099 12.867 5.22343 10.2306L11.6412 3.64119C13.4962 1.7862 16.5038 1.78625 18.3588 3.64124C20.2125 5.495 20.2137 8.49978 18.3624 10.3551L11.9446 16.9446C10.8706 18.0185 9.1294 18.0185 8.05546 16.9445C6.98152 15.8706 6.98151 14.1294 8.05546 13.0554L14.6412 6.46966C14.9341 6.17677 15.409 6.17677 15.7019 6.46966C15.9948 6.76256 15.9948 7.23743 15.7019 7.53032L9.11612 14.1161C8.62796 14.6043 8.62796 15.3957 9.11612 15.8839C9.60324 16.371 10.3924 16.372 10.8808 15.887L17.2981 9.29804C18.5673 8.02884 18.5673 5.9711 17.2981 4.7019C16.03 3.43381 13.9747 3.43269 12.7053 4.69855Z"/>
</svg>
