<svg viewBox="0 0 24 24" fill="none" xmlns="http://www.w3.org/2000/svg">
<path fill-rule="evenodd" clip-rule="evenodd" d="M5 2.25C5.41421 2.25 5.75 2.58579 5.75 3V4.25H7C7.41421 4.25 7.75 4.58579 7.75 5C7.75 5.41421 7.41421 5.75 7 5.75H5.75V7C5.75 7.41421 5.41421 7.75 5 7.75C4.58579 7.75 4.25 7.41421 4.25 7V5.75H3C2.58579 5.75 2.25 5.41421 2.25 5C2.25 4.58579 2.58579 4.25 3 4.25H4.25V3C4.25 2.58579 4.58579 2.25 5 2.25ZM13 2.25C13.3228 2.25 13.6094 2.45657 13.7115 2.76283L15.8841 9.28053L21.2633 11.2978C21.5561 11.4075 21.75 11.6874 21.75 12C21.75 12.3126 21.5561 12.5925 21.2633 12.7022L15.8841 14.7195L13.7115 21.2372C13.6094 21.5434 13.3228 21.75 13 21.75C12.6772 21.75 12.3906 21.5434 12.2885 21.2372L10.1159 14.7195L4.73666 12.7022C4.44393 12.5925 4.25 12.3126 4.25 12C4.25 11.6874 4.44393 11.4075 4.73666 11.2978L10.1159 9.28053L12.2885 2.76283C12.3906 2.45657 12.6772 2.25 13 2.25ZM13 5.37171L11.4258 10.0943C11.3542 10.309 11.1895 10.4799 10.9776 10.5594L7.136 12L10.9776 13.4406C11.1895 13.5201 11.3542 13.691 11.4258 13.9057L13 18.6283L14.5742 13.9057C14.6458 13.691 14.8105 13.5201 15.0224 13.4406L18.864 12L15.0224 10.5594C14.8105 10.4799 14.6458 10.309 14.5742 10.0943L13 5.37171ZM6 16.25C6.41421 16.25 6.75 16.5858 6.75 17V18.25H8C8.41421 18.25 8.75 18.5858 8.75 19C8.75 19.4142 8.41421 19.75 8 19.75H6.75V21C6.75 21.4142 6.41421 21.75 6 21.75C5.58579 21.75 5.25 21.4142 5.25 21V19.75H4C3.58579 19.75 3.25 19.4142 3.25 19C3.25 18.5858 3.58579 18.25 4 18.25H5.25V17C5.25 16.5858 5.58579 16.25 6 16.25Z"/>
</svg>
